<mxfile modified="2022-03-25T03:08:21.694Z" host="app.diagrams.net" agent="5.0 (Macintosh; Intel Mac OS X 10_15_7) AppleWebKit/537.36 (KHTML, like Gecko) Chrome/99.0.4844.74 Safari/537.36" etag="Vok75przI4szEeMUeZlF" version="17.1.3" type="github">
  <diagram id="Ht1M8jgEwFfnCIfOTk4-" name="Page-1">
    <mxGraphModel dx="1577" dy="1023" grid="1" gridSize="10" guides="1" tooltips="1" connect="1" arrows="1" fold="1" page="1" pageScale="1" pageWidth="827" pageHeight="1169" math="0" shadow="0">
      <root>
        <mxCell id="0" />
        <mxCell id="1" parent="0" />
        <mxCell id="jZVaUwOg5UY3L9NAnvdq-71" value="AWS Cloud" style="points=[[0,0],[0.25,0],[0.5,0],[0.75,0],[1,0],[1,0.25],[1,0.5],[1,0.75],[1,1],[0.75,1],[0.5,1],[0.25,1],[0,1],[0,0.75],[0,0.5],[0,0.25]];outlineConnect=0;gradientColor=none;html=1;whiteSpace=wrap;fontSize=12;fontStyle=0;shape=mxgraph.aws4.group;grIcon=mxgraph.aws4.group_aws_cloud_alt;strokeColor=#232F3E;fillColor=none;verticalAlign=top;align=left;spacingLeft=30;fontColor=#232F3E;dashed=0;labelBackgroundColor=none;container=1;pointerEvents=0;collapsible=0;recursiveResize=0;" parent="1" vertex="1">
          <mxGeometry x="260" y="125" width="685" height="535" as="geometry" />
        </mxCell>
        <mxCell id="jZVaUwOg5UY3L9NAnvdq-73" value="Amazon S3" style="outlineConnect=0;fontColor=#232F3E;gradientColor=#60A337;gradientDirection=north;fillColor=#277116;strokeColor=#ffffff;dashed=0;verticalLabelPosition=bottom;verticalAlign=top;align=center;html=1;fontSize=12;fontStyle=0;aspect=fixed;shape=mxgraph.aws4.resourceIcon;resIcon=mxgraph.aws4.s3;labelBackgroundColor=none;" parent="jZVaUwOg5UY3L9NAnvdq-71" vertex="1">
          <mxGeometry x="116.5" y="235" width="141" height="141" as="geometry" />
        </mxCell>
        <mxCell id="jZVaUwOg5UY3L9NAnvdq-102" value="2" style="rounded=1;whiteSpace=wrap;html=1;fillColor=#007CBD;strokeColor=none;fontColor=#FFFFFF;fontStyle=1;fontSize=22;labelBackgroundColor=none;" parent="jZVaUwOg5UY3L9NAnvdq-71" vertex="1">
          <mxGeometry x="167" y="165" width="40" height="38" as="geometry" />
        </mxCell>
        <mxCell id="jZVaUwOg5UY3L9NAnvdq-103" value="3" style="rounded=1;whiteSpace=wrap;html=1;fillColor=#007CBD;strokeColor=none;fontColor=#FFFFFF;fontStyle=1;fontSize=22;labelBackgroundColor=none;" parent="jZVaUwOg5UY3L9NAnvdq-71" vertex="1">
          <mxGeometry x="490" y="65" width="40" height="38" as="geometry" />
        </mxCell>
        <mxCell id="jZVaUwOg5UY3L9NAnvdq-132" value="" style="edgeStyle=elbowEdgeStyle;rounded=0;orthogonalLoop=1;jettySize=auto;html=1;endArrow=open;endFill=0;strokeColor=#006EAF;strokeWidth=2;fontSize=14;shape=flexArrow;fillColor=#1ba1e2;" parent="jZVaUwOg5UY3L9NAnvdq-71" target="IBF80FeYRWzOthEcFM4V-30" edge="1">
          <mxGeometry relative="1" as="geometry">
            <mxPoint x="257.4999999999998" y="304.88" as="sourcePoint" />
            <mxPoint x="332.4999999999998" y="304.88" as="targetPoint" />
            <Array as="points">
              <mxPoint x="350" y="305" />
              <mxPoint x="320" y="285" />
              <mxPoint x="297.5" y="304.88" />
            </Array>
          </mxGeometry>
        </mxCell>
        <mxCell id="jZVaUwOg5UY3L9NAnvdq-78" value="Data Modeling" style="outlineConnect=0;fontColor=#232F3E;gradientColor=none;fillColor=#D05C17;strokeColor=none;dashed=0;verticalLabelPosition=bottom;verticalAlign=top;align=center;html=1;fontSize=12;fontStyle=0;aspect=fixed;pointerEvents=1;shape=mxgraph.aws4.lambda_function;labelBackgroundColor=none;" parent="jZVaUwOg5UY3L9NAnvdq-71" vertex="1">
          <mxGeometry x="280" y="199" width="55" height="55" as="geometry" />
        </mxCell>
        <mxCell id="jZVaUwOg5UY3L9NAnvdq-82" value="ETL" style="outlineConnect=0;fontColor=#232F3E;gradientColor=none;fillColor=#D05C17;strokeColor=none;dashed=0;verticalLabelPosition=bottom;verticalAlign=top;align=center;html=1;fontSize=12;fontStyle=0;aspect=fixed;pointerEvents=1;shape=mxgraph.aws4.lambda_function;labelBackgroundColor=#ffffff;spacingTop=2;" parent="jZVaUwOg5UY3L9NAnvdq-71" vertex="1">
          <mxGeometry x="284" y="344" width="51" height="51" as="geometry" />
        </mxCell>
        <mxCell id="IBF80FeYRWzOthEcFM4V-30" value="Data Warehouse" style="points=[[0,0],[0.25,0],[0.5,0],[0.75,0],[1,0],[1,0.25],[1,0.5],[1,0.75],[1,1],[0.75,1],[0.5,1],[0.25,1],[0,1],[0,0.75],[0,0.5],[0,0.25]];outlineConnect=0;gradientColor=none;html=1;whiteSpace=wrap;fontSize=12;fontStyle=0;shape=mxgraph.aws4.group;grIcon=mxgraph.aws4.group_aws_cloud_alt;strokeColor=#232F3E;fillColor=none;verticalAlign=top;align=left;spacingLeft=30;fontColor=#232F3E;dashed=0;labelBackgroundColor=none;container=1;pointerEvents=0;collapsible=0;recursiveResize=0;" vertex="1" parent="jZVaUwOg5UY3L9NAnvdq-71">
          <mxGeometry x="370" y="135" width="250" height="345" as="geometry" />
        </mxCell>
        <mxCell id="IBF80FeYRWzOthEcFM4V-20" value="Amazon Redshift" style="outlineConnect=0;dashed=0;verticalLabelPosition=bottom;verticalAlign=top;align=center;html=1;shape=mxgraph.aws3.redshift;fillColor=#2E73B8;gradientColor=none;" vertex="1" parent="IBF80FeYRWzOthEcFM4V-30">
          <mxGeometry x="70" y="40" width="110" height="105" as="geometry" />
        </mxCell>
        <mxCell id="IBF80FeYRWzOthEcFM4V-22" value="" style="shape=image;verticalLabelPosition=bottom;labelBackgroundColor=default;verticalAlign=top;aspect=fixed;imageAspect=0;image=https://www.ovhcloud.com/sites/default/files/styles/text_media_horizontal/public/2021-09/ECX-1909_Hero_PostgreSQL_600x400%402x.png;" vertex="1" parent="IBF80FeYRWzOthEcFM4V-30">
          <mxGeometry x="22.5" y="180" width="205" height="61.11" as="geometry" />
        </mxCell>
        <mxCell id="IBF80FeYRWzOthEcFM4V-23" value="" style="shape=image;verticalLabelPosition=bottom;labelBackgroundColor=default;verticalAlign=top;aspect=fixed;imageAspect=0;image=https://upload.wikimedia.org/wikipedia/commons/thumb/3/38/Jupyter_logo.svg/1200px-Jupyter_logo.svg.png;" vertex="1" parent="IBF80FeYRWzOthEcFM4V-30">
          <mxGeometry x="94.78" y="255" width="60.44" height="70" as="geometry" />
        </mxCell>
        <mxCell id="IBF80FeYRWzOthEcFM4V-43" value="" style="edgeStyle=elbowEdgeStyle;rounded=0;orthogonalLoop=1;jettySize=auto;html=1;endArrow=open;endFill=0;strokeColor=#006EAF;strokeWidth=2;fontSize=14;shape=flexArrow;fillColor=#1ba1e2;" edge="1" parent="jZVaUwOg5UY3L9NAnvdq-71">
          <mxGeometry relative="1" as="geometry">
            <mxPoint x="619.9999999999998" y="314.8800000000001" as="sourcePoint" />
            <mxPoint x="732.5" y="315" as="targetPoint" />
            <Array as="points">
              <mxPoint x="712.5" y="315" />
              <mxPoint x="682.5" y="295" />
              <mxPoint x="660" y="314.88" />
            </Array>
          </mxGeometry>
        </mxCell>
        <mxCell id="jZVaUwOg5UY3L9NAnvdq-101" value="1" style="rounded=1;whiteSpace=wrap;html=1;fillColor=#007CBD;strokeColor=none;fontColor=#FFFFFF;fontStyle=1;fontSize=22;labelBackgroundColor=none;" parent="jZVaUwOg5UY3L9NAnvdq-71" vertex="1">
          <mxGeometry x="30" y="235" width="40" height="38" as="geometry" />
        </mxCell>
        <mxCell id="jZVaUwOg5UY3L9NAnvdq-158" style="edgeStyle=elbowEdgeStyle;rounded=0;orthogonalLoop=1;jettySize=auto;html=1;endArrow=open;endFill=0;strokeColor=#006EAF;strokeWidth=2;fontSize=14;shape=flexArrow;fillColor=#1ba1e2;" parent="1" edge="1">
          <mxGeometry relative="1" as="geometry">
            <mxPoint x="240" y="430" as="sourcePoint" />
            <mxPoint x="380" y="431" as="targetPoint" />
            <Array as="points" />
          </mxGeometry>
        </mxCell>
        <mxCell id="-QjtrjUzRDEMRZ5MF8oH-46" value="" style="rounded=0;whiteSpace=wrap;html=1;fillColor=#EAEDED;fontSize=22;fontColor=#FFFFFF;strokeColor=none;labelBackgroundColor=none;" parent="1" vertex="1">
          <mxGeometry x="1190" y="125" width="539" height="535" as="geometry" />
        </mxCell>
        <mxCell id="-QjtrjUzRDEMRZ5MF8oH-36" value="1" style="rounded=1;whiteSpace=wrap;html=1;fillColor=#007CBD;strokeColor=none;fontColor=#FFFFFF;fontStyle=1;fontSize=22;labelBackgroundColor=none;" parent="1" vertex="1">
          <mxGeometry x="1208.5" y="137.5" width="40" height="38" as="geometry" />
        </mxCell>
        <mxCell id="-QjtrjUzRDEMRZ5MF8oH-37" value="2" style="rounded=1;whiteSpace=wrap;html=1;fillColor=#007CBD;strokeColor=none;fontColor=#FFFFFF;fontStyle=1;fontSize=22;labelBackgroundColor=none;" parent="1" vertex="1">
          <mxGeometry x="1207" y="259.5" width="40" height="38" as="geometry" />
        </mxCell>
        <mxCell id="-QjtrjUzRDEMRZ5MF8oH-38" value="3" style="rounded=1;whiteSpace=wrap;html=1;fillColor=#007CBD;strokeColor=none;fontColor=#FFFFFF;fontStyle=1;fontSize=22;labelBackgroundColor=none;" parent="1" vertex="1">
          <mxGeometry x="1207" y="379.5" width="40" height="38" as="geometry" />
        </mxCell>
        <mxCell id="-QjtrjUzRDEMRZ5MF8oH-39" value="4" style="rounded=1;whiteSpace=wrap;html=1;fillColor=#007CBD;strokeColor=none;fontColor=#FFFFFF;fontStyle=1;fontSize=22;labelBackgroundColor=none;" parent="1" vertex="1">
          <mxGeometry x="1207" y="493.5" width="40" height="38" as="geometry" />
        </mxCell>
        <mxCell id="-QjtrjUzRDEMRZ5MF8oH-47" value="&amp;nbsp;Architecture Design" style="text;html=1;resizable=0;points=[];autosize=1;align=left;verticalAlign=top;spacingTop=-4;fontSize=30;fontStyle=1;labelBackgroundColor=none;" parent="1" vertex="1">
          <mxGeometry x="30" y="30" width="310" height="40" as="geometry" />
        </mxCell>
        <mxCell id="-QjtrjUzRDEMRZ5MF8oH-48" value="&amp;nbsp;DE assignment" style="text;html=1;resizable=0;points=[];autosize=1;align=left;verticalAlign=top;spacingTop=-4;fontSize=16;labelBackgroundColor=none;" parent="1" vertex="1">
          <mxGeometry x="36.5" y="76.5" width="130" height="20" as="geometry" />
        </mxCell>
        <mxCell id="SCVMTBWpLvtzJIhz15lM-1" value="" style="line;strokeWidth=2;html=1;fontSize=14;labelBackgroundColor=none;" parent="1" vertex="1">
          <mxGeometry x="32.5" y="101.5" width="1060" height="10" as="geometry" />
        </mxCell>
        <mxCell id="SCVMTBWpLvtzJIhz15lM-6" value="Raw dataset:&lt;br&gt;+ deals.csv&lt;br&gt;+ invites.csv&lt;br&gt;+ offers.csv&lt;br&gt;+ orders.csv&lt;br&gt;" style="text;html=1;align=left;verticalAlign=top;spacingTop=-4;fontSize=14;labelBackgroundColor=none;whiteSpace=wrap;" parent="1" vertex="1">
          <mxGeometry x="1260" y="137" width="449" height="93" as="geometry" />
        </mxCell>
        <mxCell id="SCVMTBWpLvtzJIhz15lM-7" value="&lt;span&gt;Lorem ipsum dolor sit amet, consectetur adipiscing elit, sed do eiusmod tempor incididunt ut labore et dolore magna aliqua. Ut enim ad minim veniam, quis nostrud exercitation ullamco laboris nisi ut aliquip ex ea commodo consequat. Duis aute irure dolor in reprehenderit in voluptate velit esse cillum dolore eu fugiat nulla pariatur. Excepteur sint occaecat cupidatat non proident, sunt in culpa qui officia deserunt mollit anim id est laborum.&lt;/span&gt;&lt;br&gt;" style="text;html=1;align=left;verticalAlign=top;spacingTop=-4;fontSize=14;labelBackgroundColor=none;whiteSpace=wrap;" parent="1" vertex="1">
          <mxGeometry x="1259" y="260" width="450" height="115" as="geometry" />
        </mxCell>
        <mxCell id="SCVMTBWpLvtzJIhz15lM-9" value="&lt;span&gt;Lorem ipsum dolor sit amet, consectetur adipiscing elit, sed do eiusmod tempor incididunt ut labore et dolore magna aliqua. Ut enim ad minim veniam, quis nostrud exercitation ullamco laboris nisi ut aliquip ex ea commodo consequat. Duis aute irure dolor in reprehenderit in voluptate velit esse cillum dolore eu fugiat nulla pariatur. Excepteur sint occaecat cupidatat non proident, sunt in culpa qui officia deserunt mollit anim id est laborum.&lt;/span&gt;&lt;br&gt;" style="text;html=1;align=left;verticalAlign=top;spacingTop=-4;fontSize=14;labelBackgroundColor=none;whiteSpace=wrap;" parent="1" vertex="1">
          <mxGeometry x="1259" y="378" width="450" height="117" as="geometry" />
        </mxCell>
        <mxCell id="SCVMTBWpLvtzJIhz15lM-10" value="&lt;span&gt;Lorem ipsum dolor sit amet, consectetur adipiscing elit, sed do eiusmod tempor incididunt ut labore et dolore magna aliqua. Ut enim ad minim veniam, quis nostrud exercitation ullamco laboris nisi ut aliquip ex ea commodo consequat. Duis aute irure dolor in reprehenderit in voluptate velit esse cillum dolore eu fugiat nulla pariatur. Excepteur sint occaecat cupidatat non proident, sunt in culpa qui officia deserunt mollit anim id est laborum.&lt;/span&gt;&lt;br&gt;" style="text;html=1;align=left;verticalAlign=top;spacingTop=-4;fontSize=14;labelBackgroundColor=none;whiteSpace=wrap;" parent="1" vertex="1">
          <mxGeometry x="1259" y="494" width="450" height="121" as="geometry" />
        </mxCell>
        <mxCell id="jZVaUwOg5UY3L9NAnvdq-59" value="Users" style="swimlane;fontSize=14;align=center;swimlaneFillColor=#f4f4f4;fillColor=#f4f4f4;startSize=33;container=1;pointerEvents=0;collapsible=0;recursiveResize=0;" parent="1" vertex="1">
          <mxGeometry x="30" y="125" width="210" height="175" as="geometry" />
        </mxCell>
        <mxCell id="jZVaUwOg5UY3L9NAnvdq-60" value="Sellers" style="outlineConnect=0;fontColor=#232F3E;gradientColor=none;fillColor=#232F3E;strokeColor=none;dashed=0;verticalLabelPosition=bottom;verticalAlign=top;align=center;html=1;fontSize=12;fontStyle=0;aspect=fixed;pointerEvents=1;shape=mxgraph.aws4.user;labelBackgroundColor=none;" parent="jZVaUwOg5UY3L9NAnvdq-59" vertex="1">
          <mxGeometry x="16" y="54" width="78" height="78" as="geometry" />
        </mxCell>
        <mxCell id="jZVaUwOg5UY3L9NAnvdq-61" value="Buyers" style="outlineConnect=0;fontColor=#232F3E;gradientColor=none;fillColor=#232F3E;strokeColor=none;dashed=0;verticalLabelPosition=bottom;verticalAlign=top;align=center;html=1;fontSize=12;fontStyle=0;aspect=fixed;pointerEvents=1;shape=mxgraph.aws4.corporate_data_center;labelBackgroundColor=none;" parent="jZVaUwOg5UY3L9NAnvdq-59" vertex="1">
          <mxGeometry x="120" y="48.85" width="55.14" height="81.15" as="geometry" />
        </mxCell>
        <mxCell id="IBF80FeYRWzOthEcFM4V-10" value="Data source" style="swimlane;fontSize=14;align=center;swimlaneFillColor=#f4f4f4;fillColor=#f4f4f4;startSize=33;container=1;pointerEvents=0;collapsible=0;recursiveResize=0;" vertex="1" parent="1">
          <mxGeometry x="30" y="336" width="210" height="234" as="geometry" />
        </mxCell>
        <mxCell id="IBF80FeYRWzOthEcFM4V-13" value="" style="shape=image;verticalLabelPosition=bottom;labelBackgroundColor=default;verticalAlign=top;aspect=fixed;imageAspect=0;image=data:image/png,iVBORw0KGgoAAAANSUhEUgAAADEAAAAxCAYAAABznEEcAAABYWlDQ1BrQ0dDb2xvclNwYWNlRGlzcGxheVAzAAAokWNgYFJJLCjIYWFgYMjNKykKcndSiIiMUmB/yMAOhLwMYgwKicnFBY4BAT5AJQwwGhV8u8bACKIv64LMOiU1tUm1XsDXYqbw1YuvRJsw1aMArpTU4mQg/QeIU5MLikoYGBhTgGzl8pICELsDyBYpAjoKyJ4DYqdD2BtA7CQI+whYTUiQM5B9A8hWSM5IBJrB+API1klCEk9HYkPtBQFul8zigpzESoUAYwKuJQOUpFaUgGjn/ILKosz0jBIFR2AopSp45iXr6SgYGRiaMzCAwhyi+nMgOCwZxc4gxJrvMzDY7v////9uhJjXfgaGjUCdXDsRYhoWDAyC3AwMJ3YWJBYlgoWYgZgpLY2B4dNyBgbeSAYG4QtAPdHFacZGYHlGHicGBtZ7//9/VmNgYJ/MwPB3wv//vxf9//93MVDzHQaGA3kAFSFl7jXH0fsAAAA4ZVhJZk1NACoAAAAIAAGHaQAEAAAAAQAAABoAAAAAAAKgAgAEAAAAAQAAADGgAwAEAAAAAQAAADEAAAAAQjmsxQAADfhJREFUaAWlWgmQFOUVft09szMscq2IgEdQQDFWoqUSBRYxWtFdiSjRRFIxluYwWvE+OGJSEq2oLIgptSIxlqWplKYKNYmKEDQIggfCiqKGQ/AABORYFtgFdmemO9/3el5Pb+8Mi+ZtTb/+///d7/1Hd68jXwFG33zBAMk6z7qON9Iv+F+B8xBIHRHHkZwTyG8XTZvbcAgcEYmLO7Ar8J4Qxxwr0WTca103dcgOBCruEC8gDgJJi+v+/uxJF94U4zL9lbAaSF00lpiEcWz96NaRwYpA4biuuCnvoD+vi3HjdzyPDqjmwA+y4jn3104cew11AThidpTDkooRmAPlCCmILuYVea74gT/XyQWv+I6kHD9wA9fxidEOPBD5joPOAJ1OAHA84AIxxgoUFQjGJEiJ60Po0a4EN8JWx/cxIJJ1U+4fx0ypyy66b95DIKd+sw+32o4wnYgTVHJA+xEtYnE9Rwq54LUl0+c9yPb/C6Nvq/+muM71MMRzXFUhyEg3cbzpYyaPzS+6f86foIOT0BwhEduhPbghWAcd4gAxoQPGxLM2pLkMgAF57Mc+FR7rs7FyWJy0ZMhBB6DiCwTrc+iCVUEVFM0cPWnsDRQKiNsZ9uBKzwhxD+OOUJS1Wbdsh4DSKN4ZthFrG67UXxpvBwm0uJhnqKiNQb5wNXrWoUNQgxnU4IzRE+uvLwqiIx3AnIh7SOFmeBxzCWQ7BNS43RZxnNYMNEwSo09iTKIUhWEK+QzUoGymemVbu0xAew0KDJMoqMIcmV5bWrVMhqo2JyoaXjRQjamQiSKJZonCy8kijcqIYfYptDv5beLJBjYQqL65XOspSx+Y0+i35a4Q31/nYCHhqoVMNYy+o95KK2TG1Zwwz+LYlJJY+ytkopLh8f5Iockqdqjcpe/M3QplC7lsO46TkpR385AbhmTeePCV5W25AjPyX5YWHEJGPGbk1ji/OWEGE5ty0sX7DzYnjIeYMuNtk8G+JIRjC7F054JnUP9tiDho3IsGVp8w7cwb6nsufWB+Y85vn4Cxj7SeAz/jec69tb+58NcmjArNcPbFlRtNNN5FJkhvtElssgybQ2ox+fpv6PEq1p6/OCktHfjh3FTV3Z0zelL9dekgkw/EnwLzNqGkdbJjdcSqVT+RAm2foFJCJeXaX2FOJHkqtUMN4ZU0hIh29uzZheF3nPOHbL76ODftjg1wNnMdpzZw3Frct6LQWrBp9mCYmSxH/CqU3t2jJtYF5TJB4YxQHLTdIROlUY5FxuC+XNuoTa7RsN943WXTF27dXchf7ueDe+FBk+4bUIp50B0ZOtL13Gr8dLNlbaP0Mp7jNSQzERdqwokVtMPUl1ZrGzdM2rixbCtrESfbJlHxyhnzW0Fw59m31j+bTwUXe647yhenDyKPgOsaz3V4IObHAHUEyzKdiCungqQB1obnKFVwKANzGELcCOtLYpNBTM44T9xBhkbHX585dwXuV5x+zUXV0md/ukdbXtXuzaSCbCE1KZXxpvg5nsI6zom4sKQSjbsD8ZxYCbdVeLGXo+XgYLKNxyQTR/eNj724Lylw1B31B+J99NqMsP64UPaZQM0ESrQTQ5ExojNBMWwy2XUwh2Isekva5A+B1Lkc0Vpqo44iE9txZTrOTHQBcWPLkcZlmtNxbPxmOGXwnmC8rDej04FyZhlBXLgSc06UAdIZT5nhqMuMiGNKNCMjwuJNXH+ch0dZ5dHSBnE5JygjKUDlVshEJSOUJ3ZJymSb+okNTFY5WnMkygRLm1DJCWOIY50TIVuHa9yIDgOJRlyWZcB4DRtLnDbpUJeZ6MQAqSYQDy2mo0tMHkIcx2VXykDIFV5Nr2H2qrNgVmyZ4D5BYKcOAFvlG7Z+JTCrJOjwPBHRUBjA2l3hkLrz1Zw0B4jNHs0En9U5J+iIOjHilhHdCtnqau9AypR2Euthkyk+Lhad8atqrxvbp5ANN6FODF+jo9Ced9Ldu7e/0fDC3hh73BG1r1Mmam+rq3UzqalVTtDPycJM7OyIsYa5AzfeZvhB8A0/j10S7uMs8yuvjzPOC3DsLJVc+OzXgRGjOJgifPoA3YE2zFiJOpvGcGEfTqfLXd+dvWj6nMXooOGkiYApYSYMUniX8i9Q1AR4f0LTbUeOp4T32GCUR1NIuTy7iAygeEurYoaJwzGsjHQV0IE2yVsMHd5XjcAbxitrJ9bfs6Rh7syQs/I1hZNijUa3qIBG8ahb8AuSxw9NgCNpvODigzxrkA61t+cUc9TFWwoPhyocnaU9j7dITCXCnyq+FCu6L/kCx0CPJ38c7DTE5A/HS5h9sKsX9N199u31K16fMXcBu4o/IyeZQip8kopHCAbm26Vf734y9KjB0q2qmzS37pZ1mz+R1v2tcMJR54YOHCxHH3EUHPZlw7ZNsqVpi0b52H7HSFU6Lc0te2TX3ibQIwVwKgUnOea6njTt3SV7IJOyKmamEIiX8ap9X8bD0teK9pZQGN3QCetlhFHzaAZy6ahL5EejL5FBUEpgVp549Rl5fN6Tmo0fjh4vV533Y6k5rLeON+/bI4+89Li88NZL8rPzr5CzTjxDVm/6WCY/eZfkkZlcLicjvn2mTL7sZg3A1Kenybtr34WzVZpZCqH+OKYlfGmNd4gjT596UbfGqXoQLJkey0exUkMBuXxOxo8cJxMvvUEd2LN/r6zb+hmc8KWmRy/h+JF9+slV505QB97/7CN59f1FsmNPk3z+5QYtl0UfviG9qnvI6UNOkTOGnqZZ5QuA8087T3m2N++Q1RvXoNTC1V3jBvVJrE7BUKwG4Xk7NLHs1fYJjTbL48pzL1fClZ+vkpn/eEQ279wiJx1zovRC1Jn+EwYOkd6H9dL58NSCv8uCFYtQen1lf9t+qc5Wy7I1jbJq01o56egT5NxTxsgCOHky7ocPOVXlzml8RVr2tUi2KqPtZAasTac8LHy+X1jWKQsJVyIn2hHl4YjcET0PR0QLMmvuE/LBpx9KNp2VpWuWa+TSiF5TS5PkMJ5JpeXOy26Rc75VK6+tfF2Wr3lXZ+Zu1Pq8dxeoE8OHnqpzawxomJ0tu76UxR++KWnw0kgaXAlzzMe88AuF5Qmbo6bxRuXEFadvzxolaMu1ydZd2yUDBzxMxCooZTFS+cdfrJe/LZwtO1ua5XDQjxt+gUy/+m75Rd1VzL1O3CUfvS07MKn79qiRC874npw17AyVS+e27dqG1Slc5dhpke+EuRJKsB5r3ivKrNLDhcyMNh5ra6mwtulMBqkeWHOktLUfwETMSzsmZvHFlpbdrBcfk18+fKNMe/4h+WzbRqw8nvxgxFjpA6O5dG7avkneWrVMdV/13ctl2FFDZO+BfbJo5WINBpUzioRKGPuX+Hn/rwsb5m4CGWNIDuLo/GG8kROM9lLU87bd29Womy++VsaccrYM6n+cjD2zTr7/nTpM0hyyUiUTYBhXjucW/1OWrm2kXHWeWzL/uF+w9ul87+49NZuN69+XtZvXazZJb1FMYo7hvSss9Ze3HGh5lO0imCPWjmREc4Jls2XnZpk17ym5Y/z1MgTGz/z5PbIf2ehWlZVn33xRJ++ok8+SW+DgT865DKvSTqxix6pQLgTNrc1qHVee1RtWy7L178moYcM1hHOW/VsKWG5TxQnNKFpGIgxJ/PaBracFp5QpKx5evB1dGn1gy0Qxh2EWyRs5QUtY8/PemS+cnD/FKjXoiGNRWlWyHcZu2rFZUqmU7MWG996nH8jxRw6SoQOPlxaUyYpVH8ojL8zCnpCLls59B/bLy8vmy+D+g2T1F+tkxcfvSRr7gkEyA2zzPRM8y2PDmrxk2suvgpYO8GcO6EnWyieSgff+eiyyDiph2WQR/QE1/eWwbt2xwzbJzj27pIBVqYA5kkZJ9cd+0RMrDjc6TlbuIcxAKcI4emB+9O7eW7hQtB5oxUGERpYiqLS0EH18KQbYjzL9Hc5LD7ABYGcUee1Be+TtdVPTmdRd0SsbfW2e1+8CUXo5PxjVT7HR0UPWuJ6NECkaSmc2YEJzh+cY+/gjWDC4p3De7GjerhFmuRqUaEDPc5d+AwzWYm2fsqRh3vNFOnOAmWAG2LZMdHAsxQ8ZXpV3YuQvWUDCQ1oqwNG42CbGaoELDKfiFL5QMf0HAY1tx4rtQI0zM3QFG/J5/+m84//57YZ5nxUJzAE2aXDMivDNUSkkmBOB0z4uKGSvwUvb7ogenxlgm4NzYRILX/acB++GMdy+77/tBk4jfNKnVoYI30mdALzEACQxxPEwajgp23Pagd52Uvk3ltw3fyOtBdDYuMHGao6wzZSwHUFqyX3/WYvW7VHPQW7wkfxx1NUwTUAgz70+7eUZByH/KkPxlGo8wGyGm8FRGwT6KdkUsJBNQDwCEUNxXCOAyOpjHJkRRT6GEYw/bJW/mrz4aFKfjXUpr1MmwGkKusR034h8zJCiVnYdCiTprG34UGQoDfaQfIc5EeNMRobteGrxhQb1iNzxYIbnnHPx+OgDe1ikouhhunBB0/8WsP8aoEKycD6U1hg2SkA+nrmVFth4Xf0vheJ/J+A5H6WMf0yQMfj8FTHbZmcOcMBGic24cBxPnOwM8Hzhel4dzjd1UWqMixIAFinD6gAHTJNh9hXBaAwbbxJTP5dvLtXcIswJRpy8cWxqiEPw3U+spCgo+W4WEYr2GiqIR8FEJPHX4aEMyteLH6wyp9mvkzeGLbbE4X17/lE/F7xF78uBCsZAhMsRJfoi2mKoShFLECaa3OGxjK8qHPDH/w+BsB2XsLfJZAAAAABJRU5ErkJggg==;" vertex="1" parent="IBF80FeYRWzOthEcFM4V-10">
          <mxGeometry x="50" y="81.5" width="91" height="91" as="geometry" />
        </mxCell>
        <mxCell id="IBF80FeYRWzOthEcFM4V-24" value="" style="shape=image;verticalLabelPosition=bottom;labelBackgroundColor=default;verticalAlign=top;aspect=fixed;imageAspect=0;image=https://logos-world.net/wp-content/uploads/2021/10/Tableau-Emblem.png;" vertex="1" parent="1">
          <mxGeometry x="1010" y="379.71" width="160.25" height="90.29" as="geometry" />
        </mxCell>
        <mxCell id="-QjtrjUzRDEMRZ5MF8oH-28" value="4" style="rounded=1;whiteSpace=wrap;html=1;fillColor=#007CBD;strokeColor=none;fontColor=#FFFFFF;fontStyle=1;fontSize=22;labelBackgroundColor=none;" parent="1" vertex="1">
          <mxGeometry x="1080" y="270" width="40" height="38" as="geometry" />
        </mxCell>
      </root>
    </mxGraphModel>
  </diagram>
</mxfile>
